<svg width="24" height="25" viewBox="0 0 24 25" fill="none" xmlns="http://www.w3.org/2000/svg">
<g clip-path="url(#clip0_8_8)">
<rect width="24" height="24" transform="translate(0 0.5)" fill="#33C959"/>
<path d="M22.9998 14.7216C22.8685 14.7216 22.7384 14.7475 22.6171 14.7977C22.4958 14.848 22.3855 14.9216 22.2927 15.0145C22.1998 15.1074 22.1262 15.2176 22.0759 15.339C22.0257 15.4603 21.9998 15.5903 21.9998 15.7217C22.0097 16.2999 21.79 16.8585 21.3887 17.275C20.9874 17.6915 20.4374 17.9319 19.8592 17.9436H7.29741L10.0834 15.0857C10.2661 14.8954 10.3662 14.6406 10.3619 14.3769C10.3576 14.1131 10.2492 13.8618 10.0605 13.6775C9.87168 13.4933 9.61777 13.3911 9.35401 13.3932C9.09024 13.3953 8.83799 13.5016 8.65219 13.6888L4.20997 18.2451C4.02776 18.432 3.92578 18.6826 3.92578 18.9436C3.92578 19.2046 4.02776 19.4552 4.20997 19.642L8.65215 24.1984C8.74359 24.2936 8.85296 24.3697 8.97397 24.4225C9.09498 24.4752 9.22523 24.5034 9.35721 24.5056C9.48919 24.5077 9.62028 24.4837 9.74293 24.4349C9.86558 24.3861 9.97736 24.3135 10.0718 24.2213C10.1663 24.1291 10.2416 24.0191 10.2933 23.8977C10.345 23.7763 10.3722 23.6458 10.3733 23.5138C10.3744 23.3818 10.3493 23.2509 10.2996 23.1287C10.2498 23.0064 10.1763 22.8952 10.0834 22.8015L7.29741 19.9436H19.8732C19.8785 19.9436 19.8828 19.9407 19.8879 19.9407C20.991 19.9213 22.0418 19.4672 22.8118 18.6771C23.5818 17.887 24.0087 16.8249 23.9998 15.7217C23.9998 15.5903 23.974 15.4603 23.9237 15.339C23.8735 15.2176 23.7998 15.1074 23.7069 15.0145C23.6141 14.9216 23.5038 14.848 23.3825 14.7977C23.2612 14.7475 23.1311 14.7216 22.9998 14.7216Z" fill="black"/>
<path d="M16.7023 7.05588L13.9163 9.91376C13.8232 10.0074 13.7495 10.1186 13.6996 10.241C13.6497 10.3633 13.6245 10.4943 13.6255 10.6264C13.6265 10.7585 13.6536 10.8891 13.7054 11.0106C13.7571 11.1322 13.8324 11.2422 13.927 11.3345C14.0215 11.4268 14.1334 11.4994 14.2562 11.5482C14.3789 11.597 14.5102 11.6209 14.6422 11.6187C14.7743 11.6165 14.9047 11.5881 15.0257 11.5353C15.1468 11.4824 15.2562 11.406 15.3475 11.3106L19.7897 6.75431C19.9719 6.56748 20.0739 6.31684 20.0739 6.05586C20.0739 5.79489 19.9719 5.54425 19.7897 5.35741L15.3475 0.80106C15.2561 0.705863 15.1467 0.62971 15.0257 0.576992C14.9047 0.524275 14.7745 0.496036 14.6425 0.493905C14.5105 0.491774 14.3794 0.515792 14.2568 0.564574C14.1341 0.613357 14.0223 0.685939 13.9279 0.778134C13.8334 0.870329 13.7581 0.980313 13.7064 1.10174C13.6546 1.22317 13.6275 1.35365 13.6264 1.48564C13.6253 1.61763 13.6504 1.74853 13.7001 1.87079C13.7499 1.99305 13.8234 2.10425 13.9163 2.19797L16.7023 5.05584H4.12645C4.12123 5.05584 4.11693 5.05877 4.11176 5.05877C3.00871 5.07819 1.95792 5.53231 1.18792 6.32238C0.41791 7.11245 -0.0090469 8.17458 -0.000106513 9.27779C-0.000106513 9.54301 0.10525 9.79737 0.292787 9.98491C0.480323 10.1725 0.734677 10.2778 0.999893 10.2778C1.26511 10.2778 1.51946 10.1725 1.707 9.98491C1.89454 9.79737 1.99989 9.54301 1.99989 9.27779C1.98999 8.69953 2.20975 8.14092 2.61101 7.72442C3.01227 7.30792 3.5623 7.06751 4.14052 7.05588H16.7023Z" fill="black"/>
</g>
<defs>
<clipPath id="clip0_8_8">
<rect width="24" height="24" fill="white" transform="translate(0 0.5)"/>
</clipPath>
</defs>
</svg>
