<svg width="25" height="24" viewBox="0 0 25 24" fill="none" xmlns="http://www.w3.org/2000/svg">
<rect width="24" height="24" transform="translate(0.5)" fill="#33C959"/>
<path d="M2.5 11H16.5" stroke="black" stroke-width="1.5" stroke-linecap="round" stroke-linejoin="round"/>
<path d="M2.5 17H13.5" stroke="black" stroke-width="1.5" stroke-linecap="round" stroke-linejoin="round"/>
<path d="M2.5 5H20.5" stroke="black" stroke-width="1.5" stroke-linecap="round" stroke-linejoin="round"/>
<path d="M20.5 18.5C20.5 19.3284 19.8284 20 19 20C18.1716 20 17.5 19.3284 17.5 18.5C17.5 17.6716 18.1716 17 19 17C19.8284 17 20.5 17.6716 20.5 18.5Z" fill="black"/>
<path d="M20.5 18.5C20.5 19.3284 19.8284 20 19 20C18.1716 20 17.5 19.3284 17.5 18.5C17.5 17.6716 18.1716 17 19 17C19.8284 17 20.5 17.6716 20.5 18.5ZM20.5 18.5V10.6C20.5 10.2686 20.7686 10 21.1 10H22.5" stroke="black" stroke-width="1.5" stroke-linecap="round"/>
</svg>
