<svg width="24" height="24" viewBox="0 0 24 24" fill="none" xmlns="http://www.w3.org/2000/svg">
<path d="M20.4716 3.93939C19.3708 2.68597 18.0633 1.69269 16.6241 1.01668C15.185 0.340661 13.6427 -0.00475002 12.0859 0.0003073H11.9943C10.423 -0.0117347 8.86507 0.330247 7.41032 1.00656C5.95557 1.68287 4.63269 2.68016 3.51786 3.94099C2.40302 5.20182 1.51826 6.70129 0.914515 8.35306C0.310768 10.0048 -3.5591e-05 11.7763 3.05689e-09 13.5654V20.8696C0.0030156 21.6988 0.293652 22.493 0.808613 23.0793C1.32357 23.6657 2.02114 23.9966 2.7494 24H4.58234C5.3106 23.9966 6.00817 23.6657 6.52313 23.0793C7.03809 22.493 7.32872 21.6988 7.33174 20.8696V15.6523C7.32872 14.8231 7.03809 14.0289 6.52313 13.4426C6.00817 12.8562 5.3106 12.5253 4.58234 12.5219H1.87876C2.10338 9.65297 3.26924 6.98577 5.14398 5.05188C7.01872 3.118 9.46464 2.05946 11.9943 2.08724H12.0057C14.5339 2.06551 16.9769 3.12613 18.8505 5.05884C20.7241 6.99155 21.8915 9.65525 22.1212 12.5219H19.4177C18.6885 12.5219 17.9891 12.8517 17.4735 13.4388C16.9579 14.0258 16.6683 14.822 16.6683 15.6523V20.8696C16.6683 21.6998 16.9579 22.4961 17.4735 23.0831C17.9891 23.6702 18.6885 24 19.4177 24H21.2506C21.9788 23.9966 22.6764 23.6657 23.1914 23.0793C23.7063 22.493 23.997 21.6988 24 20.8696V13.5654C24.002 11.7746 23.6911 10.0013 23.0853 8.3487C22.4795 6.6961 21.5911 5.19724 20.4716 3.93939Z" fill="#33C959"/>
</svg>
